<?xml version="1.0" standalone="no"?><!DOCTYPE svg PUBLIC "-//W3C//DTD SVG 1.1//EN" "http://www.w3.org/Graphics/SVG/1.1/DTD/svg11.dtd"><svg t="1608183153792" class="icon" viewBox="0 0 1024 1024" version="1.1" xmlns="http://www.w3.org/2000/svg" p-id="4565" xmlns:xlink="http://www.w3.org/1999/xlink" width="32" height="32"><defs><style type="text/css"></style></defs><path d="M576 640m-64 0a64 64 0 1 0 128 0 64 64 0 1 0-128 0Z" fill="#333332" p-id="4566"></path><path d="M928.032 416c-0.032 0-0.032 0 0 0L928 224V128a96 96 0 0 0-96-96H176A176.192 176.192 0 0 0 0 208v640C0 945.024 78.944 1024 176 1024h576c97.024 0 176-78.976 176-176V800h0.032c127.936-96.032 127.936-287.968 0-384zM176 96H832c17.632 0 32 14.336 32 32v197.888A94.912 94.912 0 0 0 832 320h-0.032V160a32 32 0 0 0-32-32h-672a32 32 0 0 0-32 32v126.176A111.424 111.424 0 0 1 64 208 112 112 0 0 1 176 96z m623.968 96h-672V160h672v32z m0 32v32h-672V224h672z m0 64v32H176A110.72 110.72 0 0 1 128 308.8V288h671.968zM864 848a112 112 0 0 1-112 112h-576A112 112 0 0 1 64 848V343.648A175.136 175.136 0 0 0 176 384H832c17.632 0 32 14.336 32 32v64h-288a160 160 0 1 0 0 320h288v48z m40.864-112H576c-52.928 0-96-43.072-96-96s43.072-96 96-96h288a65.984 65.984 0 0 0 51.264-25.728c3.328-4.48 5.92-9.504 8-14.752 0.288-0.704 0.8-1.248 1.056-1.984A174.656 174.656 0 0 1 960 608a174.336 174.336 0 0 1-55.136 128z" fill="#333332" p-id="4567"></path></svg>