<?xml version="1.0" standalone="no"?><!DOCTYPE svg PUBLIC "-//W3C//DTD SVG 1.1//EN" "http://www.w3.org/Graphics/SVG/1.1/DTD/svg11.dtd"><svg t="1608195351880" class="icon" viewBox="0 0 1024 1024" version="1.1" xmlns="http://www.w3.org/2000/svg" p-id="4111" xmlns:xlink="http://www.w3.org/1999/xlink" width="32" height="32"><defs><style type="text/css"></style></defs><path d="M487.25 418.28m-250.34 0a250.34 250.34 0 1 0 500.68 0 250.34 250.34 0 1 0-500.68 0Z" fill="#F4E428" p-id="4112"></path><path d="M487.25 793.02c-49.64 0-97.8-9.73-143.16-28.91-43.8-18.52-83.13-45.04-116.89-78.81s-60.28-73.09-78.81-116.89c-19.19-45.36-28.91-93.53-28.91-143.16s9.73-97.8 28.91-143.16c18.52-43.8 45.04-83.13 78.81-116.89s73.09-60.28 116.89-78.81c45.36-19.19 93.53-28.91 143.16-28.91s97.8 9.73 143.16 28.91c43.8 18.52 83.13 45.04 116.89 78.81s60.28 73.09 78.81 116.89c19.19 45.36 28.91 93.53 28.91 143.16s-9.73 97.8-28.91 143.16c-18.53 43.8-45.04 83.13-78.81 116.89s-73.09 60.28-116.89 78.81c-45.36 19.18-93.53 28.91-143.16 28.91z m0-677.79c-170.94 0-310.01 139.07-310.01 310.01S316.3 735.26 487.25 735.26s310.01-139.07 310.01-310.01-139.07-310.02-310.01-310.02z" fill="#666666" p-id="4113"></path><path d="M859.2 933c-12.79 9.53-30.89 6.88-40.41-5.91L680.78 741.8c-9.53-12.79-6.88-30.89 5.91-40.41 12.79-9.53 30.89-6.88 40.41 5.91l138.01 185.3c9.53 12.78 6.88 30.88-5.91 40.4zM611.87 298.02c-73.33-56.23-175.93-56.23-249.26 0-11.55 8.77-27.62 10.25-37.04 1.27l-4.66-4.66c-9.4-8.92-5.99-27.66 9.12-39.22 92.5-70.93 221.93-70.93 314.43 0 15.1 11.55 18.53 30.3 9.12 39.22l-4.66 4.66c-9.43 8.99-25.5 7.5-37.05-1.27z" fill="#666666" p-id="4114"></path></svg>