<?xml version="1.0" standalone="no"?><!DOCTYPE svg PUBLIC "-//W3C//DTD SVG 1.1//EN" "http://www.w3.org/Graphics/SVG/1.1/DTD/svg11.dtd"><svg t="1608703301430" class="icon" viewBox="0 0 1024 1024" version="1.1" xmlns="http://www.w3.org/2000/svg" p-id="3500" xmlns:xlink="http://www.w3.org/1999/xlink" width="32" height="32"><defs><style type="text/css"></style></defs><path d="M529.655172 900.413793h459.034483v88.275862H529.655172z" fill="#2c2c2c" p-id="3501"></path><path d="M512 988.689655C249.114483 988.689655 35.310345 774.885517 35.310345 512S249.114483 35.310345 512 35.310345s476.689655 213.804138 476.689655 476.689655-213.804138 476.689655-476.689655 476.689655z m0-865.103448C297.842759 123.586207 123.586207 297.842759 123.586207 512s174.256552 388.413793 388.413793 388.413793 388.413793-174.256552 388.413793-388.413793S726.157241 123.586207 512 123.586207z" fill="#2c2c2c" p-id="3502"></path><path d="M520.827586 326.62069m-79.448276 0a79.448276 79.448276 0 1 0 158.896552 0 79.448276 79.448276 0 1 0-158.896552 0Z" fill="#2c2c2c" p-id="3503"></path><path d="M697.37931 520.827586m-79.448276 0a79.448276 79.448276 0 1 0 158.896552 0 79.448276 79.448276 0 1 0-158.896552 0Z" fill="#2c2c2c" p-id="3504"></path><path d="M520.827586 697.37931m-79.448276 0a79.448276 79.448276 0 1 0 158.896552 0 79.448276 79.448276 0 1 0-158.896552 0Z" fill="#2c2c2c" p-id="3505"></path><path d="M326.62069 520.827586m-79.448276 0a79.448276 79.448276 0 1 0 158.896552 0 79.448276 79.448276 0 1 0-158.896552 0Z" fill="#2c2c2c" p-id="3506"></path></svg>